<svg xmlns="http://www.w3.org/2000/svg" viewBox="0 0 512 512" role="img" aria-label="Feathly icon">
  <defs>
    <linearGradient id="featherGradient" x1="140" y1="420" x2="350" y2="90" gradientUnits="userSpaceOnUse">
      <stop offset="0" stop-color="#7dbdf2"/>
      <stop offset="0.52" stop-color="#8bd8df"/>
      <stop offset="1" stop-color="#78dfbd"/>
    </linearGradient>
    <radialGradient id="bgGlow" cx="50%" cy="42%" r="64%">
      <stop offset="0" stop-color="#ffffff"/>
      <stop offset="0.72" stop-color="#fbfeff"/>
      <stop offset="1" stop-color="#eefaff"/>
    </radialGradient>
  </defs>
  <rect width="512" height="512" rx="112" fill="url(#bgGlow)"/>
  <path fill="url(#featherGradient)" d="M345.7 65.3c-70.3 18.7-126.4 67.4-151.5 132.1-15.1 39-14.3 78.6-5.3 114.4-25.4-19.6-37.7-48.9-39.7-93.2-31.9 55.1-27.9 107.2 8.3 151.7-28.8-10.6-48.8-28.1-62.2-56.2-4.5 38.3 11.2 72.5 41.3 96.6-21.2 29.5-55.2 27.7-80.1 12.9-22.8-13.6-29.4-40.8-13.5-57.1 10.2-10.4 24.5-11.8 35.2-4.5-13.4-18.4-43.8-13.9-58.9 7.7-17.8 25.4-9.5 63 18.3 83.4 42.8 31.3 101.5 8.8 132.7-36.7 20.6-8.2 41.6-18.2 62.1-30.5 56.3-33.6 99.9-78.7 121.9-126.5-31 30.3-70.6 52.1-116.2 64.4 69.4-34.6 117.4-88.1 133.8-149.2-23 34.7-54.2 63.7-93.5 84.8 57.4-53.1 79.8-116.2 67.3-194.7Z"/>
  <path fill="#ffffff" fill-opacity="0.94" d="M278.7 126.5c-29.9 65.1-58.7 138.4-83 211.8-12.5 37.8-22.6 69.3-35.6 93.8 18.4-23.3 32.7-58 46-95.3 25.9-72.3 51.9-144.7 72.6-210.3Z"/>
  <path fill="#ffffff" fill-opacity="0.78" d="M243.3 151.6c-19.1 31.1-32.5 63.6-37.6 94.7 9.7-22.3 22.2-43.2 40.3-63.8l-2.7-30.9ZM152.4 254.8c3.7 28.4 13.7 54.3 30.4 76.3-19.7-10.9-34.7-27.6-45.6-49.1 3.8-9.4 8.8-18.6 15.2-27.2ZM319.8 186.2c-6.3 28.7-20.4 55.3-42.4 79.7 30.5-17.3 55.2-39.8 73.6-67.9-8.6-4.9-18.9-8.8-31.2-11.8Z"/>
  <path fill="url(#featherGradient)" d="M389 63l13.6 36.4L439 113l-36.4 13.6L389 163l-13.6-36.4L339 113l36.4-13.6L389 63Z"/>
</svg>
